<?xml version="1.0" encoding="UTF-8" standalone="no"?>
<!DOCTYPE svg PUBLIC "-//W3C//DTD SVG 1.1//EN" "http://www.w3.org/Graphics/SVG/1.1/DTD/svg11.dtd">
<svg xmlns="http://www.w3.org/2000/svg" xmlns:xlink="http://www.w3.org/1999/xlink" version="1.1" width="1417.32pt" height="812.157pt" viewBox="0 0 1417.32 812.157">
<g enable-background="new">
<g id="Layer-1" data-name="Layer">
<clipPath id="cp0">
<path transform="matrix(1,0,0,-1,0,812.157)" d="M 0 812.157 L 1417.32 812.157 L 1417.32 0 L 0 0 Z "/>
</clipPath>
<g clip-path="url(#cp0)">
<path transform="matrix(1,0,0,-1,132.7388,429.93949)" d="M 0 0 C 0 6.521 2.678 9.798 8.695 9.798 L 34.756 9.798 C 37.477 9.798 39.126 11.409 39.126 14.12 L 39.126 32.617 C 39.126 35.332 37.477 36.982 34.756 36.982 L -100.547 36.982 C -103.26 36.982 -104.349 35.332 -104.349 32.617 L -104.349 14.12 C -104.349 11.409 -103.26 9.798 -100.547 9.798 L -73.925 9.798 C -68.481 9.798 -65.78 6.521 -65.78 0 L -65.78 -317.317 C -65.78 -323.855 -68.481 -327.132 -73.925 -327.132 L -100.547 -327.132 C -103.26 -327.132 -104.349 -328.77 -104.349 -331.477 L -104.349 -349.943 C -104.349 -352.65 -103.26 -354.266 -100.547 -354.266 L 34.756 -354.266 C 37.477 -354.266 39.126 -352.65 39.126 -349.943 L 39.126 -331.477 C 39.126 -328.77 37.477 -327.132 34.756 -327.132 L 8.695 -327.132 C 2.678 -327.132 0 -323.855 0 -317.317 Z M 161.929 36.982 C 124.412 36.982 107.571 37.505 61.39 39.146 C 58.688 39.146 57.581 37.505 57.581 34.794 L 55.416 -71.735 C 55.416 -74.427 56.491 -76.042 59.202 -76.042 L 103.237 -76.042 C 105.956 -76.042 107.048 -74.427 107.048 -71.735 L 107.048 -35.302 C 107.048 -7.038 116.302 3.814 140.725 3.814 L 170.585 3.814 L 170.585 -317.317 C 170.585 -323.855 167.905 -327.132 161.929 -327.132 L 114.65 -327.132 C 112.458 -327.132 111.403 -328.77 111.403 -331.477 L 111.403 -349.943 C 111.403 -352.65 112.458 -354.266 114.65 -354.266 L 291.245 -354.266 C 293.969 -354.266 295.042 -352.65 295.042 -349.943 L 295.042 -331.477 C 295.042 -328.77 293.969 -327.132 291.245 -327.132 L 243.962 -327.132 C 238.561 -327.132 235.819 -323.855 235.819 -317.317 L 235.819 3.814 L 265.168 3.814 C 289.62 3.814 299.369 -7.038 299.369 -35.302 L 299.369 -71.735 C 299.369 -74.427 300.479 -76.042 302.648 -76.042 L 346.674 -76.042 C 349.397 -76.042 351.031 -74.427 351.031 -71.735 L 348.845 34.794 C 348.845 37.505 347.759 39.146 345.038 39.146 C 303.204 37.505 281.474 36.982 243.962 36.982 Z M 650.436 0 C 650.436 6.521 653.159 9.798 658.588 9.798 L 683.031 9.798 C 685.2 9.798 686.315 11.409 686.315 14.12 L 686.315 32.617 C 686.315 35.332 685.2 36.982 683.031 36.982 L 578.142 36.982 C 575.979 36.982 574.904 35.332 574.904 32.617 L 574.904 14.12 C 574.904 11.409 575.979 9.798 578.142 9.798 L 602.602 9.798 C 608.592 9.798 611.296 6.521 611.296 0 L 611.296 -223.333 C 611.296 -288.562 591.734 -321.141 541.213 -321.141 C 489.036 -321.141 471.669 -289.614 471.669 -224.395 L 471.669 0 C 471.669 6.521 474.369 9.798 480.362 9.798 L 506.442 9.798 C 509.142 9.798 510.761 11.409 510.761 14.12 L 510.761 32.617 C 510.761 35.332 509.142 36.982 506.442 36.982 L 371.122 36.982 C 368.386 36.982 367.325 35.332 367.325 32.617 L 367.325 14.12 C 367.325 11.409 368.386 9.798 371.122 9.798 L 397.739 9.798 C 403.186 9.798 405.888 6.521 405.888 0 L 405.888 -226.602 C 405.888 -327.646 446.66 -358.619 529.243 -358.619 C 608.012 -358.619 650.436 -322.771 650.436 -222.257 Z M 477.078 153.167 C 460.248 153.167 447.748 139.054 447.748 121.114 C 447.748 102.071 460.248 87.974 477.078 87.974 C 493.931 87.974 505.877 102.071 505.877 121.114 C 505.877 139.054 493.931 153.167 477.078 153.167 M 583.601 153.167 C 566.755 153.167 554.242 139.054 554.242 121.114 C 554.242 102.071 566.755 87.974 583.601 87.974 C 599.352 87.974 611.866 102.071 611.866 121.114 C 611.866 139.054 599.352 153.167 583.601 153.167 M -32.358 153.167 C -49.198 153.167 -61.688 139.054 -61.688 121.114 C -61.688 102.071 -49.198 87.974 -32.358 87.974 C -15.507 87.974 -3.555 102.071 -3.555 121.114 C -3.555 139.054 -15.507 153.167 -32.358 153.167 " fill="#ffffff" fill-rule="evenodd"/>
<path transform="matrix(1,0,0,-1,1142.0742,62.292055)" d="M 0 0 L 2.987 .042 C 3.614 .069 3.922 -.285 3.968 -1.054 L 4.588 -37.217 C 4.588 -37.963 4.272 -38.34 3.649 -38.363 L .657 -38.417 C .35 -38.451 .246 -38.625 .246 -38.948 L .304 -41.036 C .304 -41.339 .435 -41.54 .715 -41.524 L 16.017 -41.282 C 16.267 -41.282 16.489 -41.036 16.489 -40.771 L 16.451 -38.625 C 16.451 -38.34 16.243 -38.128 15.947 -38.128 L 12.967 -38.225 C 12.302 -38.225 12.028 -37.855 12.028 -37.109 L 11.355 -.938 C 11.355 -.188 11.667 .208 12.302 .208 L 15.278 .223 C 15.57 .223 15.739 .454 15.739 .8 L 15.682 2.876 C 15.682 3.153 15.513 3.369 15.186 3.369 L -.027 3.068 C -.343 3.068 -.488 2.876 -.488 2.6 L -.419 .492 C -.419 .169 -.312 0 0 0 " fill="#ffffff"/>
<path transform="matrix(1,0,0,-1,1166.1621,103.3277)" d="M 0 0 L 13.56 -4.21 C 13.829 -4.295 14.021 -4.158 14.067 -3.857 L 14.736 -1.85 C 14.798 -1.573 14.774 -1.35 14.448 -1.257 L 12.687 -.7 C 12.052 -.504 11.849 -.081 12.075 .634 L 15.997 13.609 L 19.428 15.878 L 23.485 -2.938 C 23.728 -3.577 23.323 -3.988 22.635 -3.803 L 20.843 -3.219 C 20.601 -3.146 20.42 -3.261 20.362 -3.577 L 19.728 -5.615 C 19.647 -5.895 19.697 -6.111 19.936 -6.207 L 33.706 -10.441 C 33.938 -10.525 34.114 -10.417 34.226 -10.08 L 34.775 -8.042 C 34.933 -7.792 34.845 -7.534 34.595 -7.51 L 33.364 -7.126 C 32.418 -6.818 32.007 -6.111 31.772 -5.057 L 25.931 20.008 L 41.013 29.83 C 41.64 30.21 42.059 30.407 42.728 30.195 L 44.943 29.46 C 45.235 29.379 45.462 29.538 45.52 29.83 L 46.154 31.868 C 46.212 32.145 46.154 32.398 45.893 32.441 L 33.922 36.136 C 33.66 36.248 33.476 36.059 33.395 35.763 L 32.764 33.798 C 32.706 33.475 32.764 33.237 33.018 33.183 L 35.667 32.398 C 36.302 32.175 36.313 31.583 35.775 31.279 L 17.64 19.112 L 22.535 35.248 C 22.797 35.967 23.135 36.248 23.804 36.059 L 26.615 35.183 C 26.931 35.048 27.149 35.213 27.219 35.498 L 27.834 37.513 C 27.931 37.813 27.807 38.021 27.504 38.113 L 12.925 42.643 C 12.621 42.72 12.472 42.589 12.355 42.297 L 11.768 40.267 C 11.672 39.982 11.726 39.744 12.014 39.689 L 14.855 38.786 C 15.444 38.621 15.655 38.178 15.444 37.452 L 4.973 2.842 C 4.792 2.119 4.373 1.873 3.792 2.042 L .95 2.926 C .627 3.011 .423 2.907 .354 2.584 L -.276 .581 C -.342 .265 -.276 .046 0 0 " fill="#ffffff"/>
<path transform="matrix(1,0,0,-1,1088.79,74.8136)" d="M 0 0 L 2.869 .865 C 3.442 1.065 3.865 .812 4.065 .108 L 14.594 -34.518 C 14.752 -35.236 14.594 -35.655 13.982 -35.894 L 11.103 -36.747 C 10.841 -36.809 10.749 -37.059 10.871 -37.366 L 11.448 -39.316 C 11.525 -39.646 11.722 -39.797 12.029 -39.709 L 23.585 -36.133 C 23.911 -36.024 23.966 -35.802 23.877 -35.532 L 23.297 -33.518 C 23.173 -33.175 23.012 -33.067 22.728 -33.156 L 19.908 -33.986 C 19.259 -34.244 18.882 -33.951 18.647 -33.232 L 9.887 -4.276 L 25.631 -20.935 C 29.088 -24.588 32.453 -28.326 35.694 -31.979 C 35.871 -32.163 36.113 -32.256 36.256 -32.163 L 43.197 -30.087 C 43.497 -29.995 43.539 -29.771 43.455 -29.472 L 31.926 8.684 C 31.706 9.411 31.902 9.864 32.525 10.045 L 35.353 10.914 C 35.679 10.999 35.694 11.229 35.599 11.521 L 35.014 13.514 C 34.91 13.836 34.764 13.975 34.448 13.891 L 22.831 10.291 C 22.612 10.249 22.569 10.029 22.646 9.714 L 23.238 7.734 C 23.339 7.422 23.52 7.249 23.746 7.303 L 26.643 8.23 C 27.261 8.422 27.649 8.184 27.884 7.453 L 36.645 -21.458 L 20.689 -4.618 C 17.324 -1.007 13.863 2.785 10.995 6.115 C 10.783 6.361 10.549 6.507 10.333 6.418 L -.896 2.954 C -1.177 2.869 -1.245 2.65 -1.177 2.376 L -.554 .37 C -.469 .054 -.258 -.115 0 0 " fill="#ffffff"/>
<path transform="matrix(1,0,0,-1,1149.957,55.777894)" d="M 0 0 C 1.908 .046 3.192 1.7 3.076 3.884 C 2.984 5.945 1.516 7.499 -.396 7.468 C -2.288 7.453 -3.61 5.745 -3.499 3.7 C -3.364 1.562 -1.876 -.069 0 0 " fill="#ffffff"/>
<path transform="matrix(1,0,0,-1,955.4004,277.91017)" d="M 0 0 L 2.058 -.478 C 2.319 -.501 2.562 -.424 2.573 -.116 L 3.284 2.838 C 3.399 3.438 3.85 3.66 4.554 3.514 L 29.473 -2.331 C 40.578 -4.881 45.02 -1.185 47.081 7.982 C 49.05 16.743 46.231 22.369 35.198 24.941 L 10.811 30.664 C 10.037 30.845 9.748 31.202 9.883 31.817 L 10.499 34.517 C 10.591 34.771 10.422 34.925 10.129 34.986 L 8.114 35.471 C 7.779 35.548 7.603 35.471 7.537 35.217 L 4.88 23.545 C 4.814 23.318 4.941 23.203 5.272 23.104 L 7.299 22.611 C 7.603 22.568 7.779 22.611 7.842 22.888 L 8.476 25.61 C 8.614 26.257 9.068 26.495 9.783 26.311 L 34.341 20.534 C 41.475 18.919 44.573 15.904 43.301 10.267 C 42.001 4.468 38.052 3.345 30.896 5.021 L 6.257 10.774 C 5.483 10.967 5.227 11.328 5.399 11.993 L 6.041 14.894 C 6.1 15.174 5.965 15.432 5.661 15.513 L 3.653 15.958 C 3.322 16.035 3.131 15.904 3.034 15.593 L -.346 .538 C -.435 .276 -.272 .107 0 0 " fill="#ffffff"/>
<path transform="matrix(1,0,0,-1,1042.3477,106.265689)" d="M 0 0 C .212 -.254 .442 -.3 .677 -.135 L 3.092 1.681 C 3.534 2.073 4.016 1.958 4.484 1.365 L 26.004 -27.515 C 26.431 -28.122 26.431 -28.606 25.938 -28.987 L 23.55 -30.783 C 23.273 -30.999 23.339 -31.222 23.496 -31.437 L 24.75 -33.152 C 24.911 -33.406 25.146 -33.491 25.381 -33.291 L 36.69 -24.665 C 36.963 -24.462 36.925 -24.28 36.732 -24.026 L 35.49 -22.323 C 35.299 -22.093 35.067 -22.016 34.871 -22.188 L 33.391 -23.327 C 32.849 -23.715 32.364 -23.607 31.922 -23.012 L 23.873 -12.194 L 24.058 -8.053 L 41.505 -15.82 C 42.205 -15.986 42.29 -16.532 41.693 -16.963 L 40.171 -18.136 C 39.975 -18.271 39.975 -18.497 40.171 -18.747 L 41.436 -20.42 C 41.616 -20.674 41.824 -20.724 42.017 -20.616 L 53.572 -11.863 C 53.753 -11.664 53.688 -11.494 53.572 -11.218 L 52.249 -9.575 C 52.111 -9.295 51.865 -9.233 51.688 -9.402 L 50.665 -10.179 C 49.854 -10.779 49.034 -10.687 48.085 -10.264 L 24.573 -.281 L 25.607 17.816 C 25.65 18.535 25.711 18.955 26.292 19.423 L 28.177 20.854 C 28.431 21.058 28.431 21.239 28.234 21.485 L 26.992 23.192 C 26.754 23.416 26.596 23.5 26.334 23.308 L 16.312 15.682 C 16.144 15.547 16.201 15.32 16.359 15.071 L 17.62 13.401 C 17.794 13.148 18.009 13.086 18.197 13.232 L 20.416 14.901 C 20.954 15.32 21.404 14.982 21.331 14.378 L 20.458 -7.614 L 10.398 5.891 C 9.987 6.503 9.987 6.964 10.502 7.372 L 12.875 9.187 C 13.109 9.36 13.145 9.602 12.952 9.887 L 11.722 11.563 C 11.502 11.779 11.226 11.794 11.037 11.602 L -1.187 2.373 C -1.407 2.126 -1.407 1.958 -1.23 1.681 Z " fill="#ffffff"/>
<path transform="matrix(1,0,0,-1,967.8096,235.38678)" d="M 0 0 C .324 -.077 .558 -.023 .662 .246 L 1.616 3.165 C 1.773 3.715 2.27 3.914 2.954 3.653 L 36.783 -8.118 C 37.498 -8.376 37.71 -8.783 37.533 -9.341 L 36.571 -12.218 C 36.444 -12.56 36.614 -12.729 36.887 -12.798 L 38.845 -13.532 C 39.16 -13.591 39.371 -13.567 39.421 -13.244 L 48.881 14.397 L 34.898 20.182 C 34.618 20.273 34.395 20.238 34.318 19.92 L 32.799 15.543 C 32.726 15.316 32.842 15.094 33.153 15.048 L 39.587 12.451 C 42.528 11.244 43.682 10.718 41.455 4.307 L 39.629 -1.177 L 5.369 10.718 C 4.661 10.96 4.435 11.391 4.646 12.024 L 6.392 17.197 C 6.507 17.505 6.392 17.728 6.104 17.835 L 4.127 18.496 C 3.885 18.62 3.6 18.496 3.504 18.197 L -2.233 1.28 C -2.372 .988 -2.233 .812 -1.93 .695 Z " fill="#ffffff"/>
<path transform="matrix(1,0,0,-1,1253.7559,138.82526)" d="M 0 0 L 17.4 18.254 C 17.916 18.777 18.39 18.835 18.823 18.385 L 20.823 16.489 C 21.004 16.266 21.212 16.351 21.396 16.543 L 22.877 18.081 C 23.077 18.312 23.092 18.5 22.957 18.688 L 14.413 27.01 C 14.263 27.203 14.056 27.126 13.824 26.937 L 12.394 25.388 C 12.167 25.169 12.125 24.973 12.31 24.788 L 14.32 22.826 C 14.747 22.381 14.747 21.873 14.217 21.342 L -3.288 3.037 C -8.372 -2.347 -12.51 -3.458 -16.632 .545 C -20.854 4.684 -19.824 8.651 -14.675 13.989 L 2.911 32.394 C 3.43 32.955 3.888 33.006 4.384 32.536 L 6.456 30.44 C 6.706 30.248 6.964 30.248 7.176 30.44 L 8.633 31.971 C 8.837 32.236 8.821 32.448 8.633 32.675 L -2.357 43.388 C -2.573 43.635 -2.78 43.588 -3.003 43.331 L -4.453 41.831 C -4.676 41.596 -4.695 41.408 -4.453 41.166 L -2.342 39.063 C -1.896 38.624 -1.896 38.17 -2.458 37.616 L -20.204 19.065 C -28.142 10.713 -27.23 4.96 -20.512 -1.585 C -14.125 -7.814 -7.888 -8.23 0 0 " fill="#ffffff"/>
<path transform="matrix(1,0,0,-1,1010.9189,143.23639)" d="M 0 0 C .307 -.196 .484 -.23 .68 0 L 2.588 2.372 C 2.96 2.826 3.445 2.88 4.007 2.372 L 31.836 -20.396 C 32.413 -20.854 32.51 -21.351 32.105 -21.827 L 30.198 -24.169 C 30.064 -24.423 30.079 -24.612 30.311 -24.839 L 31.956 -26.177 C 32.183 -26.315 32.413 -26.365 32.617 -26.115 L 51.049 -3.065 C 51.241 -2.819 51.237 -2.573 50.968 -2.399 L 42.335 4.896 C 42.085 5.126 41.827 5.072 41.615 4.787 L 38.485 .896 C 38.335 .723 38.416 .5 38.608 .315 L 41.438 -2.012 C 43.915 -4.026 44.139 -5.687 42.466 -7.872 L 36.855 -14.816 L 23.553 -3.938 L 26.253 -.589 C 27.148 .519 27.887 .558 29.148 -.504 L 31.018 -2.012 C 31.264 -2.196 31.472 -2.196 31.641 -2.035 L 34.125 1.119 C 34.336 1.342 34.229 1.558 34.01 1.723 C 30.518 4.349 27.229 7.091 23.915 10.018 C 23.669 10.24 23.453 10.24 23.315 10.037 L 20.773 6.856 C 20.615 6.664 20.696 6.448 20.911 6.256 L 22.827 4.691 C 24.096 3.657 24.23 2.907 23.315 1.78 L 20.649 -1.596 L 8.398 8.479 L 13.985 15.517 C 15.793 17.747 17.335 17.747 19.776 15.686 L 22.615 13.394 C 22.884 13.19 23.061 13.19 23.215 13.363 L 26.388 17.331 C 26.587 17.555 26.553 17.823 26.326 18.023 L 17.182 25.138 C 16.97 25.361 16.731 25.307 16.527 25.084 C 13.59 21.354 11.689 18.585 9.032 15.348 L -1.677 1.957 C -1.9 1.703 -1.804 1.511 -1.562 1.288 Z " fill="#ffffff"/>
<path transform="matrix(1,0,0,-1,996.9902,186.06836)" d="M 0 0 C .272 -.142 .477 -.142 .607 .111 L 3.084 4.465 C 3.269 4.772 3.184 4.937 2.915 5.127 L -.669 7.164 C -3.415 8.791 -3.953 10.325 -2.577 12.725 L -.889 15.687 L 30.503 -2.603 C 31.11 -2.979 31.264 -3.469 30.94 -4.026 L 28.299 -8.71 C 28.168 -8.933 28.241 -9.133 28.519 -9.302 L 30.345 -10.333 C 30.603 -10.471 30.795 -10.471 30.94 -10.24 L 40.839 7.164 C 41.021 7.441 40.947 7.642 40.674 7.841 L 38.874 8.872 C 38.601 9.011 38.37 8.979 38.239 8.765 L 35.59 4.076 C 35.298 3.512 34.798 3.465 34.141 3.812 L 2.784 22.124 L 4.418 25.03 C 5.822 27.461 7.434 27.792 10.19 26.139 L 13.747 24.108 C 14.021 23.97 14.235 23.97 14.378 24.185 L 16.832 28.546 C 16.962 28.803 16.943 29.015 16.674 29.211 L 6.13 35.045 C 5.892 35.214 5.626 35.19 5.483 34.929 C 3.291 30.699 2.13 28.546 0 24.8 L -4.607 16.717 C -6.738 13.025 -7.729 11.376 -10.464 6.907 C -10.637 6.642 -10.553 6.411 -10.295 6.303 Z " fill="#ffffff"/>
<path transform="matrix(1,0,0,-1,1322.9756,204.27637)" d="M 0 0 L 1.507 -3.946 C 1.618 -4.258 1.834 -4.308 2.122 -4.169 L 4.103 -3.423 C 4.345 -3.308 4.441 -3.139 4.38 -2.873 L -1.234 11.898 C -1.312 12.201 -1.554 12.229 -1.827 12.121 L -3.78 11.367 C -4.077 11.282 -4.192 11.086 -4.077 10.806 L -3.461 9.159 C -3.25 8.667 -3.512 8.16 -4.077 7.737 L -30.311 -12.355 C -32.275 -13.828 -34.748 -15.679 -37.021 -17.074 C -37.329 -17.178 -37.398 -17.309 -37.302 -17.54 L -34.868 -23.904 C -34.817 -24.181 -34.587 -24.27 -34.287 -24.22 C -29.122 -23.296 -25.293 -23.073 -20.693 -22.666 L 6.61 -20.42 C 7.353 -20.335 7.775 -20.466 7.99 -21.089 L 8.66 -22.793 C 8.76 -23.097 9.006 -23.15 9.283 -23.043 L 11.201 -22.289 C 11.532 -22.15 11.637 -22.012 11.532 -21.696 L 7.448 -10.948 C 7.353 -10.648 7.137 -10.626 6.833 -10.698 L 4.914 -11.464 C 4.614 -11.603 4.441 -11.775 4.606 -12.075 L 5.761 -15.063 C 5.979 -15.705 5.68 -16.017 4.914 -16.128 L -27.738 -19.604 L -1.3 .314 C -.677 .792 -.231 .681 0 0 " fill="#ffffff"/>
<path transform="matrix(1,0,0,-1,1334.3154,236.05567)" d="M 0 0 L .742 -2.962 C .893 -3.534 .569 -3.935 -.139 -4.127 L -34.848 -12.898 C -35.586 -13.052 -35.998 -12.863 -36.125 -12.244 L -36.863 -9.291 C -36.944 -8.991 -37.178 -8.922 -37.447 -8.991 L -39.489 -9.507 C -39.767 -9.603 -39.924 -9.733 -39.858 -10.037 L -32.729 -38.848 C -32.667 -39.147 -32.51 -39.229 -32.148 -39.147 L -21.15 -36.583 C -20.881 -36.468 -20.742 -36.279 -20.823 -35.964 L -22.012 -31.026 C -22.107 -30.803 -22.3 -30.719 -22.627 -30.803 L -26.111 -31.657 C -29.21 -32.445 -30.633 -31.657 -31.325 -29.004 L -33.464 -20.289 L -16.897 -16.075 L -15.848 -20.289 C -15.521 -21.65 -15.932 -22.266 -17.531 -22.662 L -19.851 -23.235 C -20.17 -23.327 -20.277 -23.496 -20.254 -23.742 L -19.255 -27.657 C -19.186 -27.961 -18.974 -28.05 -18.682 -27.961 C -14.524 -26.696 -10.383 -25.677 -6.071 -24.785 C -5.795 -24.727 -5.66 -24.562 -5.722 -24.304 L -6.694 -20.312 C -6.726 -20.112 -6.96 -19.997 -7.229 -20.112 L -9.629 -20.666 C -11.252 -21.089 -11.879 -20.767 -12.248 -19.374 L -13.259 -15.144 L 2.115 -11.291 L 4.223 -20.055 C 4.937 -22.881 4.004 -24.104 .893 -24.889 L -2.61 -25.766 C -2.915 -25.819 -3.072 -26.004 -3.026 -26.262 L -1.75 -31.164 C -1.685 -31.472 -1.48 -31.61 -1.199 -31.526 L 9.887 -28.461 C 10.214 -28.388 10.325 -28.191 10.295 -27.881 C 9.091 -23.235 8.118 -20.055 7.118 -15.951 L 2.935 .73 C 2.899 1.065 2.669 1.122 2.407 1.065 L .396 .538 C .085 .484 -.073 .28 0 0 " fill="#ffffff"/>
<path transform="matrix(1,0,0,-1,1345.2334,287.37117)" d="M 0 0 L .389 -2.491 C 1.18 -7.537 .504 -10.105 -6.249 -11.187 C -13.725 -12.39 -15.586 -8.037 -16.151 -4.326 L -16.59 -1.677 L -1.266 .777 C -.492 .919 -.127 .654 0 0 M -1.542 12.337 L -1.115 9.345 C -1.031 8.706 -1.331 8.372 -2.03 8.222 L -37.405 2.565 C -38.136 2.477 -38.532 2.716 -38.651 3.315 L -39.133 6.307 C -39.167 6.642 -39.348 6.757 -39.644 6.669 L -41.725 6.368 C -42.036 6.307 -42.197 6.169 -42.163 5.854 L -39.729 -9.383 C -39.679 -9.675 -39.501 -9.879 -39.19 -9.798 L -37.148 -9.46 C -36.817 -9.437 -36.648 -9.244 -36.714 -8.929 L -37.148 -5.96 C -37.298 -5.295 -36.994 -4.906 -36.248 -4.83 L -19.962 -2.207 L -19.447 -5.525 C -25.131 -9.94 -31.93 -14.09 -38.194 -17.305 C -38.382 -17.389 -38.467 -17.62 -38.44 -17.858 L -37.029 -26.85 C -36.948 -27.157 -36.744 -27.215 -36.476 -27.187 L -34.422 -26.85 C -34.091 -26.85 -33.964 -26.646 -33.991 -26.342 L -34.248 -24.842 C -34.364 -24.165 -34.091 -23.749 -33.468 -23.446 C -27.815 -20.235 -21.904 -16.021 -17.651 -12.506 C -16.082 -16.273 -11.964 -20.05 -5.003 -18.889 C 5.38 -17.22 5.261 -11.359 3.926 -2.849 L 1.445 12.806 C 1.407 13.145 1.219 13.194 .888 13.175 L -1.157 12.841 C -1.438 12.787 -1.643 12.637 -1.542 12.337 " fill="#ffffff"/>
<path transform="matrix(1,0,0,-1,1351.3662,352.42979)" d="M 0 0 C -.304 0 -.519 -.146 -.519 -.469 L -.519 -3.48 C -.519 -4.099 -.872 -4.399 -1.622 -4.399 L -37.39 -4.399 C -38.132 -4.399 -38.462 -4.099 -38.462 -3.48 L -38.462 -.469 C -38.462 -.146 -38.682 0 -39.005 0 L -41.081 0 C -41.4 0 -41.531 -.146 -41.531 -.469 L -41.531 -15.897 C -41.531 -16.174 -41.4 -16.347 -41.081 -16.347 L -39.005 -16.347 C -38.682 -16.347 -38.462 -16.174 -38.462 -15.897 L -38.462 -12.913 C -38.462 -12.217 -38.132 -11.929 -37.39 -11.929 L -1.622 -11.929 C -.872 -11.929 -.519 -12.217 -.519 -12.913 L -.519 -15.897 C -.519 -16.174 -.304 -16.347 0 -16.347 L 2.062 -16.347 C 2.346 -16.347 2.569 -16.174 2.569 -15.897 L 2.569 -.469 C 2.569 -.146 2.346 0 2.062 0 Z " fill="#ffffff"/>
<path transform="matrix(1,0,0,-1,1327.9824,331.2179)" d="M 0 0 C -2.335 -6.138 -4.265 -7.668 -8.41 -7.86 C -12.037 -8.091 -15.84 -7.007 -16.113 -1.865 C -16.401 3.431 -12.748 5.554 -6.776 5.187 C -6.487 5.138 -6.307 5.284 -6.307 5.592 L -6.634 11.698 C -6.634 11.875 -6.834 11.998 -7.161 12.029 C -16.56 12.529 -19.897 7.322 -19.463 -1.638 C -18.882 -12.213 -13.779 -15.912 -5.796 -15.459 C 1 -15.07 4.648 -11.236 7.875 -2.019 C 10.063 3.765 11.732 4.607 15.651 4.83 C 19.927 5.015 22.143 3.219 22.346 -.611 C 22.631 -5.414 18.881 -6.864 13.655 -6.668 C 13.328 -6.583 13.178 -6.752 13.178 -7.091 L 13.471 -13.052 C 13.497 -13.229 13.713 -13.417 14.005 -13.459 C 23.334 -13.967 26.092 -9.099 25.668 -.504 C 25.257 7.43 21.177 12.732 13.378 12.337 C 5.983 11.922 3.126 8.876 0 0 " fill="#ffffff"/>
<path transform="matrix(1,0,0,-1,1275.7139,109.50787)" d="M 0 0 C 1.392 1.492 1.477 3.638 .165 4.861 C -1.177 6.215 -3.25 6.045 -4.719 4.554 C -6.195 2.988 -6.265 .839 -4.915 -.492 C -3.619 -1.723 -1.512 -1.522 0 0 " fill="#ffffff"/>
<path transform="matrix(1,0,0,-1,1267.127,101.10156)" d="M 0 0 C 1.376 1.5 1.507 3.581 .173 4.911 C -1.204 6.253 -3.323 6.084 -4.738 4.577 C -6.237 3.054 -6.354 .9 -4.996 -.392 C -3.592 -1.792 -1.531 -1.561 0 0 " fill="#ffffff"/>
<path transform="matrix(1,0,0,-1,1254.5479,156.5841)" d="M 0 0 C -.58 -.377 -1.107 -.354 -1.415 .146 L -3.149 2.672 C -3.307 2.892 -3.562 2.892 -3.795 2.723 L -5.522 1.491 C -5.765 1.288 -5.838 1.123 -5.68 .877 L 1.284 -9.168 C 1.473 -9.472 1.692 -9.422 1.907 -9.291 L 3.634 -8.061 C 3.899 -7.864 3.969 -7.684 3.8 -7.419 L 2.119 -4.953 C 1.723 -4.423 1.85 -3.962 2.496 -3.508 L 27.026 13.866 L 16.205 -6.407 C 13.848 -10.902 11.375 -15.282 8.93 -19.528 C 8.764 -19.767 8.764 -19.967 8.883 -20.17 L 13.032 -26.143 C 13.244 -26.389 13.425 -26.389 13.701 -26.196 L 46.023 -3.346 C 46.589 -2.885 47.101 -2.919 47.473 -3.508 L 49.181 -5.907 C 49.338 -6.187 49.546 -6.187 49.792 -5.992 L 51.519 -4.784 C 51.772 -4.6 51.83 -4.403 51.677 -4.161 L 44.731 5.872 C 44.559 6.122 44.323 6.122 44.108 5.906 L 42.386 4.699 C 42.162 4.557 42.051 4.307 42.205 4.138 L 43.916 1.626 C 44.315 1.064 44.182 .592 43.574 .203 L 19.089 -17.151 L 29.999 3.326 C 32.387 7.744 34.855 12.259 37.098 16.023 C 37.294 16.297 37.324 16.566 37.213 16.766 L 30.457 26.457 C 30.299 26.711 30.08 26.711 29.814 26.538 L 28.08 25.295 C 27.873 25.153 27.811 24.931 27.93 24.707 L 29.691 22.196 C 30.045 21.692 29.941 21.22 29.322 20.796 Z " fill="#ffffff"/>
<path transform="matrix(1,0,0,-1,1309.9658,175.7276)" d="M 0 0 C .266 -.554 .031 -1.026 -.604 -1.361 L -32.775 -17.182 C -33.46 -17.532 -33.929 -17.405 -34.168 -16.851 L -35.502 -14.109 C -35.629 -13.859 -35.832 -13.81 -36.133 -13.943 L -38.01 -14.89 C -38.294 -15.013 -38.363 -15.213 -38.213 -15.475 L -31.529 -29.345 C -31.437 -29.626 -31.148 -29.687 -30.876 -29.61 L -29.026 -28.649 C -28.727 -28.549 -28.673 -28.257 -28.784 -27.984 L -30.072 -25.296 C -30.376 -24.688 -30.199 -24.269 -29.522 -23.935 L 2.653 -8.061 C 3.284 -7.722 3.753 -7.872 4.072 -8.502 L 5.376 -11.129 C 5.457 -11.437 5.745 -11.506 5.991 -11.359 L 7.887 -10.421 C 8.156 -10.325 8.229 -10.037 8.091 -9.783 L 1.442 4.054 C 1.276 4.365 1.065 4.384 .776 4.253 L -1.084 3.361 C -1.381 3.207 -1.477 3.022 -1.315 2.723 Z " fill="#ffffff"/>
<path transform="matrix(1,0,0,-1,1322.8945,179.18067)" d="M 0 0 C 1.815 .953 2.649 2.899 1.815 4.606 C 1.038 6.36 -1.034 6.898 -2.792 5.987 C -4.727 4.977 -5.549 2.992 -4.727 1.195 C -3.919 -.492 -1.903 -1.008 0 0 " fill="#ffffff"/>
<path transform="matrix(1,0,0,-1,1349.8359,414.99229)" d="M 0 0 L -2.064 .342 C -2.411 .396 -2.584 .319 -2.619 0 L -3.099 -3.011 C -3.195 -3.627 -3.596 -3.85 -4.303 -3.742 L -39.689 1.907 C -40.436 2.042 -40.735 2.376 -40.608 2.996 L -40.158 6.003 C -40.094 6.311 -40.263 6.479 -40.574 6.533 L -42.627 6.841 C -42.928 6.926 -43.135 6.779 -43.174 6.479 L -47.758 -22.854 C -47.826 -23.101 -47.669 -23.292 -47.369 -23.323 L -36.263 -25.284 C -35.944 -25.331 -35.74 -25.2 -35.69 -24.885 L -34.925 -19.839 C -34.867 -19.616 -35.028 -19.446 -35.371 -19.416 L -38.92 -18.854 C -42.059 -18.331 -43.097 -17.039 -42.678 -14.286 L -41.251 -5.411 L -24.399 -8.142 L -25.026 -12.421 C -25.269 -13.798 -25.903 -14.201 -27.537 -13.94 L -29.888 -13.578 C -30.214 -13.532 -30.395 -13.609 -30.437 -13.855 L -31.053 -17.862 C -31.11 -18.154 -30.937 -18.293 -30.641 -18.354 C -26.311 -18.854 -22.077 -19.562 -17.812 -20.385 C -17.497 -20.447 -17.271 -20.37 -17.271 -20.108 L -16.658 -16.098 C -16.647 -15.859 -16.778 -15.678 -17.035 -15.632 L -19.481 -15.232 C -21.1 -14.982 -21.581 -14.394 -21.335 -13.024 L -20.685 -8.722 L -5.061 -11.21 L -6.472 -20.108 C -6.93 -23.046 -8.306 -23.738 -11.46 -23.238 L -14.951 -22.654 C -15.263 -22.623 -15.493 -22.738 -15.521 -22.97 L -16.354 -27.992 C -16.374 -28.261 -16.221 -28.491 -15.912 -28.553 L -4.477 -30.138 C -4.164 -30.161 -3.991 -30.007 -3.961 -29.745 C -3.245 -25.008 -2.93 -21.678 -2.261 -17.501 L .393 -.465 C .423 -.188 .289 -.02 0 0 " fill="#ffffff"/>
<path transform="matrix(1,0,0,-1,1198.2881,624.42288)" d="M 0 0 C 3.757 1.068 6.337 4.383 6.337 9.19 C 6.337 16.097 2.753 19.558 -4.177 19.558 C -11.476 19.558 -16.07 16.196 -15.187 7.452 C -15.117 7.229 -14.955 7.029 -14.81 7.029 L -9.007 7.029 C -8.803 7.029 -8.649 7.229 -8.649 7.452 C -9.16 12.905 -7.753 16.52 -4.653 16.52 C -1.843 16.52 -.643 14.013 -.643 9.067 C -.643 3.43 -3.461 1.561 -6.284 1.561 L -7.768 1.561 C -7.991 1.561 -8.13 1.399 -8.13 1.122 L -8.13 -1.593 C -8.13 -1.893 -7.991 -2.054 -7.768 -2.054 L -5.834 -2.054 C -2.758 -2.054 .365 -3.008 .365 -10.468 C .365 -16.044 -1.688 -18.867 -4.38 -18.867 C -7.884 -18.867 -9.16 -15.514 -8.649 -10.63 C -8.649 -10.353 -8.803 -10.214 -9.007 -10.214 L -14.81 -10.214 C -14.955 -10.214 -15.117 -10.353 -15.187 -10.63 C -16.07 -19.244 -11.359 -21.92 -4.507 -21.92 C 2.134 -21.92 7.472 -18.251 7.472 -9.714 C 7.472 -3.369 3.911 -.439 0 0 " fill="#ffffff"/>
<path transform="matrix(1,0,0,-1,1353.6397,375.8682)" d="M 0 0 L -12.002 1.281 C -12.279 1.308 -12.479 1.227 -12.479 .9 L -12.909 -4.096 C -12.968 -4.398 -12.748 -4.58 -12.479 -4.588 L -8.36 -4.937 C -5.227 -5.218 -4.092 -6.387 -4.334 -9.148 L -4.619 -12.56 L -40.67 -9.341 C -41.432 -9.286 -41.771 -8.933 -41.701 -8.256 L -41.231 -2.865 C -41.231 -2.638 -41.394 -2.469 -41.701 -2.469 L -43.785 -2.288 C -44.066 -2.288 -44.277 -2.36 -44.313 -2.618 L -46.043 -22.654 C -46.043 -22.992 -45.869 -23.13 -45.555 -23.188 L -43.539 -23.323 C -43.22 -23.385 -43.047 -23.296 -42.989 -22.953 L -42.497 -17.577 C -42.485 -16.993 -42.094 -16.682 -41.336 -16.728 L -5.242 -19.97 L -5.55 -23.296 C -5.765 -26.084 -7.088 -27.03 -10.275 -26.745 L -14.375 -26.453 C -14.655 -26.357 -14.855 -26.507 -14.901 -26.729 L -15.32 -31.752 C -15.359 -32.06 -15.159 -32.26 -14.901 -32.283 L -2.884 -33.094 C -2.577 -33.121 -2.389 -33.037 -2.361 -32.729 C -2.107 -27.93 -1.962 -25.507 -1.604 -21.208 L -.793 -11.909 C -.446 -7.609 -.212 -5.71 .435 -.496 C .435 -.185 .296 -.054 0 0 " fill="#ffffff"/>
<path transform="matrix(1,0,0,-1,1175.6797,618.3702)" d="M 0 0 L -12.109 0 C -15.213 0 -18.374 .092 -22.365 .191 C -22.646 .191 -22.738 .092 -22.738 -.216 L -22.903 -12.168 C -22.903 -12.437 -22.808 -12.606 -22.584 -12.606 L -18.42 -12.606 C -18.212 -12.606 -18.093 -12.437 -18.093 -12.168 L -18.093 -8.814 C -18.093 -5.415 -16.705 -5.131 -14.813 -5.131 L -4.019 -5.131 C -9.794 -17.437 -14.159 -27.842 -18.42 -39.879 C -18.585 -40.256 -18.235 -40.54 -18.093 -40.54 L -11.506 -40.54 C -11.344 -40.54 -11.236 -40.425 -11.19 -40.155 C -8.783 -28.826 -5.106 -17.298 .381 -2.7 L .381 -.5 C .381 -.17 .27 0 0 0 " fill="#ffffff"/>
<path transform="matrix(1,0,0,-1,1144.6777,618.3702)" d="M 0 0 L -12.172 0 C -15.256 0 -18.366 .092 -22.393 .191 C -22.666 .191 -22.758 .092 -22.758 -.216 L -22.932 -12.168 C -22.932 -12.437 -22.82 -12.606 -22.608 -12.606 L -18.425 -12.606 C -18.205 -12.606 -18.105 -12.437 -18.105 -12.168 L -18.105 -8.814 C -18.105 -5.415 -16.713 -5.131 -14.81 -5.131 L -4.003 -5.131 C -9.803 -17.437 -14.148 -27.842 -18.425 -39.879 C -18.598 -40.256 -18.263 -40.54 -18.105 -40.54 L -11.549 -40.54 C -11.313 -40.54 -11.249 -40.425 -11.19 -40.155 C -8.772 -28.826 -5.104 -17.298 .384 -2.7 L .384 -.5 C .384 -.17 .284 0 0 0 " fill="#ffffff"/>
<path transform="matrix(1,0,0,-1,1329.6895,491.8917)" d="M 0 0 C -.308 .108 -.492 .047 -.607 -.215 L -1.631 -3.053 C -1.869 -3.652 -2.292 -3.846 -2.996 -3.537 L -36.621 8.814 C -37.321 9.061 -37.563 9.491 -37.371 10.067 L -36.302 12.875 C -36.171 13.214 -36.341 13.398 -36.621 13.506 L -38.605 14.236 C -38.882 14.321 -39.094 14.252 -39.193 13.982 L -44.431 -.53 C -44.516 -.814 -44.431 -1.068 -44.112 -1.146 L -42.193 -1.876 C -41.87 -1.984 -41.632 -1.876 -41.531 -1.6 L -40.555 1.224 C -40.309 1.869 -39.848 2 -39.14 1.754 L -5.557 -10.613 C -4.88 -10.867 -4.592 -11.274 -4.799 -11.951 L -5.841 -14.721 C -5.926 -15.013 -5.841 -15.267 -5.557 -15.351 L -3.58 -16.082 C -3.308 -16.197 -3.072 -16.082 -2.957 -15.767 L 2.262 -1.276 C 2.38 -.991 2.262 -.814 1.946 -.699 Z " fill="#ffffff"/>
<path transform="matrix(1,0,0,-1,1331.4356,456.0128)" d="M 0 0 C -7.061 2.054 -10.733 .093 -16.582 -7.245 C -20.77 -12.298 -23.104 -13.082 -27.046 -11.967 C -30.561 -10.952 -33.837 -8.621 -32.441 -3.684 C -30.979 1.369 -26.834 2.153 -21.335 -.107 C -21.035 -.314 -20.854 -.199 -20.77 .093 L -19.074 5.961 C -19.027 6.146 -19.189 6.338 -19.439 6.483 C -28.192 10.053 -33.037 6.261 -35.472 -2.431 C -38.367 -12.598 -34.726 -17.705 -26.996 -19.974 C -20.45 -21.819 -15.809 -19.45 -9.771 -11.767 C -5.846 -6.999 -4.038 -6.783 -.228 -7.891 C 3.896 -9.06 5.395 -11.514 4.345 -15.235 C 3.03 -19.835 -.931 -20.012 -5.846 -18.043 C -6.084 -17.912 -6.272 -17.966 -6.411 -18.251 L -8.033 -24.026 C -8.083 -24.211 -7.968 -24.465 -7.672 -24.55 C 1.03 -28.149 5.172 -24.465 7.549 -16.144 C 9.672 -8.529 7.549 -2.169 0 0 " fill="#ffffff"/>
<path transform="matrix(1,0,0,-1,1151.1875,579.2618)" d="M 0 0 C -67.946 0 -128.952 95.508 -128.952 222.872 C -128.952 350.182 -67.946 445.682 0 445.682 C 67.97 445.682 128.972 350.182 128.972 222.872 C 128.972 95.508 67.97 0 0 0 M 0 453.973 C -75.718 453.973 -137.15 350.52 -137.15 222.872 C -137.15 95.177 -75.718 -8.26 0 -8.26 C 75.772 -8.26 137.201 95.177 137.201 222.872 C 137.201 350.52 75.772 453.973 0 453.973 " fill="#ffffff"/>
<path transform="matrix(1,0,0,-1,1117.9473,643.0362)" d="M 0 0 L -6.146 0 C -6.761 0 -7.037 .308 -7.037 1.008 L -7.037 24.927 C -7.037 29.396 -6.903 32.703 -6.422 37.279 C -6.364 37.563 -6.511 37.702 -6.788 37.702 L -10.867 37.702 C -11.152 37.702 -11.367 37.51 -11.529 37.279 C -13.313 35.387 -16.939 33.426 -20.939 32.149 C -21.204 32.064 -21.327 31.896 -21.327 31.703 L -21.327 29.642 C -21.327 29.304 -21.204 29.165 -20.939 29.211 L -13.725 30.803 L -13.725 1.008 C -13.725 .308 -14.009 0 -14.644 0 L -20.823 0 C -21.131 0 -21.204 -.199 -21.204 -.445 L -21.204 -2.384 C -21.204 -2.653 -21.131 -2.846 -20.823 -2.846 L 0 -2.846 C .276 -2.846 .393 -2.653 .393 -2.384 L .393 -.445 C .393 -.199 .276 0 0 0 " fill="#ffffff"/>
<path transform="matrix(1,0,0,-1,1336.9268,500.9054)" d="M 0 0 C -2.042 .661 -4.046 -.107 -4.684 -1.931 C -5.36 -3.715 -4.361 -5.537 -2.314 -6.222 C -.373 -6.898 1.611 -6.137 2.284 -4.36 C 2.941 -2.568 1.957 -.669 0 0 " fill="#ffffff"/>
<path transform="matrix(1,0,0,-1,965.4375,499.20518)" d="M 0 0 C -1.923 -.754 -2.961 -2.592 -2.334 -4.423 C -1.711 -6.223 .254 -6.991 2.173 -6.253 C 4.146 -5.453 5.191 -3.554 4.553 -1.7 C 3.892 .084 2 .776 0 0 " fill="#ffffff"/>
<path transform="matrix(1,0,0,-1,1361.4072,358.24418)" d="M 0 0 C -2.199 -.062 -3.814 -1.522 -3.814 -3.461 C -3.856 -5.392 -2.265 -6.684 -.104 -6.629 C 1.927 -6.629 3.554 -5.226 3.554 -3.303 C 3.554 -1.384 2.004 .016 0 0 " fill="#ffffff"/>
<path transform="matrix(1,0,0,-1,951.2432,365.6739)" d="M 0 0 L .077 3.042 C .077 3.627 .408 3.969 1.162 3.931 L 36.968 3.323 C 37.66 3.323 38.056 2.946 38.018 2.369 L 37.986 -.669 C 37.986 -.977 38.167 -1.115 38.456 -1.115 L 40.54 -1.146 C 40.867 -1.168 41.059 -1.034 41.059 -.73 L 41.302 11.545 C 41.302 11.86 41.105 11.968 40.778 11.968 L 38.729 12.006 C 38.401 12.006 38.225 11.914 38.225 11.575 L 38.152 8.622 C 38.152 7.953 37.775 7.618 37.044 7.642 L 7.053 8.191 L 27.538 18.175 C 32.122 20.401 36.671 22.458 41.14 24.435 C 41.37 24.559 41.475 24.758 41.475 24.912 L 41.628 32.265 C 41.628 32.541 41.425 32.668 41.14 32.668 L 1.665 33.372 C .966 33.43 .577 33.672 .577 34.341 L .643 37.341 C .643 37.675 .481 37.806 .162 37.806 L -1.907 37.863 C -2.233 37.863 -2.411 37.694 -2.411 37.417 L -2.653 25.143 C -2.653 24.889 -2.422 24.773 -2.169 24.758 L -.069 24.758 C .192 24.727 .408 24.835 .408 25.081 L .481 28.131 C .481 28.796 .847 29.104 1.597 29.104 L 31.479 28.564 L 10.771 18.475 C 6.291 16.298 1.665 14.148 -2.376 12.406 C -2.688 12.291 -2.846 12.137 -2.846 11.86 L -3.076 .047 C -3.076 -.249 -2.888 -.399 -2.584 -.399 L -.496 -.445 C -.185 -.445 0 -.312 0 0 " fill="#ffffff"/>
<path transform="matrix(1,0,0,-1,1011.3027,477.6554)" d="M 0 0 L -1.945 -.754 C -2.284 -.838 -2.38 -1.092 -2.284 -1.377 L -1.257 -4.169 C -1.038 -4.83 -1.257 -5.229 -1.945 -5.514 L -35.582 -17.874 C -36.298 -18.144 -36.725 -17.951 -36.951 -17.289 L -37.959 -14.521 C -38.094 -14.236 -38.297 -14.128 -38.563 -14.236 L -40.581 -14.936 C -40.851 -15.051 -40.947 -15.305 -40.851 -15.582 L -35.663 -30.064 C -35.506 -30.372 -35.332 -30.434 -35.002 -30.318 L -33.075 -29.587 C -32.806 -29.503 -32.645 -29.303 -32.748 -29.011 L -33.756 -26.187 C -34.006 -25.564 -33.748 -25.181 -33.075 -24.927 L .593 -12.536 C 1.258 -12.282 1.734 -12.429 1.927 -13.013 L 2.946 -15.89 C 3.062 -16.205 3.292 -16.221 3.558 -16.112 L 5.511 -15.382 C 5.818 -15.305 5.926 -15.112 5.846 -14.851 L .607 -.315 C .474 -.046 .281 .085 0 0 " fill="#ffffff"/>
<path transform="matrix(1,0,0,-1,955.0547,304.47569)" d="M 0 0 C .496 4.184 2.403 6.245 8.188 5.522 C 15.032 4.668 16.64 1.084 16.128 -3.034 L 15.858 -5.864 L .6 -3.961 C -.127 -3.876 -.435 -3.546 -.354 -2.945 Z M 19.604 -3.153 C 20.331 2.449 22.696 5.219 29.702 4.353 C 35.06 3.684 37.613 .946 37.005 -4.237 L 36.613 -7.461 C 36.536 -8.13 36.144 -8.383 35.421 -8.291 L 19.228 -6.28 Z M -4.8 -15.259 L -2.754 -15.559 C -2.45 -15.582 -2.246 -15.489 -2.215 -15.187 L -1.85 -12.171 C -1.776 -11.533 -1.35 -11.275 -.673 -11.391 L 34.867 -15.767 C 35.609 -15.882 35.913 -16.221 35.836 -16.836 L 35.467 -19.851 C 35.44 -20.154 35.609 -20.285 35.913 -20.335 L 37.982 -20.604 C 38.286 -20.658 38.485 -20.535 38.521 -20.235 L 40.509 -4.053 C 41.439 3.622 40.251 10.968 30.722 12.175 C 23.407 13.06 19.893 9.629 18.378 4.3 C 18.066 9.383 14.751 12.629 9.19 13.302 C .192 14.443 -2.45 8.452 -3.403 .784 L -5.288 -14.782 C -5.338 -15.098 -5.126 -15.243 -4.8 -15.259 " fill="#ffffff"/>
<path transform="matrix(1,0,0,-1,975.0049,385.6554)" d="M 0 0 L .716 -9.821 L -16.378 -6.229 Z M 15.748 -17.62 C 16.482 -17.843 16.836 -17.912 16.909 -18.611 L 17.017 -20.35 C 17.055 -20.619 17.271 -20.727 17.54 -20.727 L 19.64 -20.573 C 19.928 -20.538 20.086 -20.427 20.086 -20.127 L 19.289 -9.137 C 19.289 -8.821 19.112 -8.687 18.816 -8.706 L 16.701 -8.841 C 16.436 -8.875 16.232 -9.014 16.232 -9.317 L 16.482 -12.167 C 16.509 -12.79 16.163 -13.059 15.394 -12.92 L 4.507 -10.659 L 3.653 1.393 L 14.133 5.308 C 14.84 5.592 15.247 5.389 15.286 4.569 L 15.49 1.916 C 15.49 1.616 15.667 1.5 16.009 1.531 L 18.078 1.673 C 18.382 1.7 18.57 1.85 18.535 2.146 L 17.559 16.355 C 17.54 16.667 17.344 16.771 17.017 16.736 L 14.967 16.575 C 14.64 16.575 14.471 16.452 14.471 16.133 L 14.621 14.456 C 14.64 13.795 14.294 13.595 13.587 13.271 L -17.235 1.558 C -19.581 .674 -22.442 -.253 -25.058 -.957 C -25.346 -1.046 -25.495 -1.207 -25.453 -1.392 L -24.977 -8.352 C -24.977 -8.514 -24.8 -8.687 -24.508 -8.706 C -19.312 -9.433 -15.578 -10.163 -11.06 -11.251 Z " fill="#ffffff"/>
<path transform="matrix(1,0,0,-1,977.9004,480.5626)" d="M 0 0 C 7.118 1.977 9.199 5.646 10.311 15.006 C 11.214 21.489 12.764 23.412 16.744 24.55 C 20.259 25.588 24.185 25.389 25.569 20.459 C 27.016 15.367 23.935 12.498 18.051 11.49 C 17.717 11.468 17.605 11.299 17.697 10.983 L 19.362 5.1 C 19.394 4.899 19.658 4.876 19.936 4.876 C 29.223 6.53 31.342 12.367 28.899 20.997 C 26.004 31.203 20.247 33.595 12.498 31.349 C 5.973 29.434 3.261 24.927 2.161 15.205 C 1.319 9.014 -.092 7.845 -3.856 6.729 C -7.991 5.553 -10.575 6.807 -11.633 10.499 C -12.959 15.121 -9.625 17.382 -4.491 18.358 C -4.16 18.412 -3.995 18.59 -4.088 18.828 L -5.718 24.643 C -5.791 24.819 -6.049 24.927 -6.353 24.927 C -15.563 23.266 -17.17 17.913 -14.797 9.63 C -12.621 1.977 -7.525 -2.238 0 0 " fill="#ffffff"/>
<path transform="matrix(1,0,0,-1,1314.0381,585.2452)" d="M 0 0 C -43.309 -61.659 -101.16 -95.716 -162.851 -95.716 C -224.56 -95.716 -282.346 -61.659 -325.739 0 C -368.755 61.205 -392.401 142.469 -392.401 228.855 C -392.401 315.172 -368.755 396.443 -325.739 457.694 C -282.346 519.319 -224.56 553.379 -162.851 553.379 C -101.16 553.379 -43.309 519.319 0 457.694 C 43.047 396.443 66.716 315.172 66.716 228.855 C 66.716 142.469 43.047 61.205 0 0 M 6.672 462.498 C -37.828 525.779 -97.896 561.647 -162.851 561.647 C -227.767 561.647 -287.868 525.779 -332.326 462.498 C -376.562 399.673 -400.604 316.595 -400.604 228.855 C -400.604 141.016 -376.562 58.014 -332.326 -4.792 C -287.868 -68.12 -227.767 -104.006 -162.851 -104.006 C -97.896 -104.006 -37.828 -68.12 6.672 -4.792 C 50.869 58.014 74.892 141.016 74.892 228.855 C 74.892 316.595 50.869 399.673 6.672 462.498 " fill="#ffffff"/>
<path transform="matrix(1,0,0,-1,970.4521,446.38389)" d="M 0 0 L -.869 4.946 C -.919 5.238 -1.123 5.322 -1.419 5.276 L -5.461 4.554 C -8.618 3.992 -9.987 4.808 -10.498 7.568 L -11.067 10.944 L 24.639 17.312 C 25.322 17.451 25.765 17.19 25.869 16.475 L 26.811 11.19 C 26.842 10.976 27.046 10.892 27.342 10.914 L 29.422 11.283 C 29.722 11.307 29.868 11.514 29.829 11.752 L 26.372 31.557 C 26.296 31.88 26.134 31.957 25.818 31.88 L 23.766 31.541 C 23.454 31.484 23.33 31.342 23.369 31.042 L 24.28 25.742 C 24.365 25.111 24.034 24.731 23.369 24.615 L -12.375 18.251 L -12.895 21.582 C -13.397 24.281 -12.375 25.615 -9.222 26.153 L -5.173 26.881 C -4.876 26.958 -4.727 27.096 -4.761 27.357 L -5.606 32.295 C -5.657 32.61 -5.907 32.765 -6.207 32.649 L -17.955 30.342 C -18.301 30.288 -18.416 30.119 -18.401 29.83 C -17.394 25.173 -16.882 22.728 -16.186 18.536 L -14.56 9.291 C -13.81 5.076 -13.536 3.216 -12.853 -2.061 C -12.756 -2.346 -12.56 -2.453 -12.248 -2.346 L -.427 -.492 C -.097 -.469 .069 -.308 0 0 " fill="#ffffff"/>
<path transform="matrix(1,0,0,-1,1145.7236,363.69248)" d="M 0 0 C -.412 3.168 .35 8.518 3.153 17.97 C 18.323 70.05 62.774 88.827 84.336 94.965 L 86.086 95.511 L 84.163 95.042 C 62.128 90.196 16.197 74.198 -1.885 23.584 C -3.403 19.393 -4.415 16.009 -5.1 13.278 C -4.992 16.523 -4.569 20.73 -3.711 26.265 C 5.21 87.066 49.83 122.952 71.842 137.212 L 78.491 141.203 C 81.236 140.923 85.197 137.127 88.481 125.736 C 91.562 115.196 93.227 100.21 92.023 83.916 C 90.92 69.292 88.404 61.509 82.225 48.472 C 72.542 27.983 35.644 -2.865 0 0 M 9.652 -26.097 C 7.057 -27.05 5.868 -23.777 5.445 -21.517 C 5.856 -19.87 5.587 -18.59 4.241 -19.086 C 3.153 -19.509 .892 -20.485 -1.407 -18.251 C -3.3 -16.421 -4.227 -13.948 -3.227 -11.672 C -7.91 -13.31 -17.594 -17.306 -26.635 -13.817 C -29.153 -12.902 -29.483 -9.487 -28.542 -7.233 C -33.188 -8.903 -37.402 -9.776 -40.721 -9.71 C -43.62 -9.664 -50.546 -9.072 -47.646 -.15 C -44.439 9.879 -39.698 16.439 -29.545 19.446 C -23.196 21.342 -15.609 19.339 -12.345 18.942 C -14.451 .634 -13.786 -4.419 2.257 -7.003 C 16.543 -9.346 30.652 -1.181 41.428 -3.465 C 48.538 -6.334 26.472 -19.836 9.652 -26.097 M 45.777 -9.118 C 46.246 -8.542 46.808 -8.019 47.465 -7.564 C 51.161 -5.05 56.321 -6.011 58.967 -9.664 C 60.736 -12.063 60.947 -15.133 59.855 -17.617 C 57.598 -22.316 51.888 -28.346 44.242 -33.553 C 36.675 -38.718 28.856 -41.921 23.504 -42.313 C 20.631 -42.501 17.781 -41.302 15.397 -37.813 C 14.278 -35.188 14.231 -32.314 15.843 -29.723 C 16.354 -28.969 17.074 -28.272 17.896 -27.677 C 18.509 -27.292 19.2 -26.907 19.931 -26.708 C 24.157 -25.315 29.061 -22.854 34.048 -19.509 C 38.978 -16.133 43.043 -12.51 45.777 -9.118 M 75.749 -36.291 C 77.184 -39.452 76.68 -43.059 74.726 -45.628 C 70.915 -50.685 62.586 -56.288 52.211 -60.563 C 41.854 -64.748 31.783 -66.594 25.354 -65.747 C 22.034 -65.302 18.954 -63.179 17.509 -59.964 C 15.324 -55.149 17.578 -49.597 22.484 -47.589 C 23.312 -47.196 24.23 -46.958 25.149 -46.896 C 30.518 -46.273 37.067 -44.59 43.819 -41.859 C 50.549 -39.125 56.321 -35.783 60.479 -32.468 C 61.197 -31.953 62.013 -31.477 62.847 -31.114 C 67.823 -29.111 73.53 -31.43 75.749 -36.291 M 81.19 -65.379 C 82.328 -68.654 81.506 -72.062 79.421 -74.4 C 75.299 -79.037 66.896 -83.868 56.637 -87.183 C 46.404 -90.451 36.697 -91.481 30.61 -90.105 C 27.472 -89.443 24.808 -87.129 23.665 -83.868 C 22.012 -78.938 24.618 -73.754 29.464 -72.17 C 30.337 -71.893 31.245 -71.747 32.11 -71.685 C 37.298 -71.577 43.635 -70.447 50.303 -68.316 C 56.925 -66.159 62.72 -63.355 66.954 -60.502 C 67.696 -60.021 68.488 -59.61 69.323 -59.311 C 74.227 -57.757 79.571 -60.456 81.19 -65.379 M 74.622 -100.48 C 71.442 -103.226 65.228 -105.71 57.971 -107.018 C 50.722 -108.355 43.988 -108.218 39.866 -106.771 C 37.743 -106.025 35.939 -104.241 35.437 -101.826 C 34.694 -98.28 37.032 -94.92 40.581 -94.266 C 41.247 -94.158 41.866 -94.135 42.489 -94.158 C 45.992 -94.489 50.364 -94.297 55.06 -93.458 C 59.701 -92.635 63.904 -91.282 66.954 -89.774 C 67.516 -89.475 68.123 -89.305 68.762 -89.167 C 72.377 -88.49 75.907 -90.828 76.656 -94.412 C 77.184 -96.735 76.295 -99.012 74.622 -100.48 M 69.246 -120.523 C 67.054 -122.23 62.951 -123.63 58.264 -124.185 C 53.557 -124.83 49.173 -124.515 46.53 -123.431 C 45.073 -122.854 43.924 -121.538 43.704 -119.893 C 43.305 -117.454 45.023 -115.17 48.826 -114.894 C 51.011 -115.17 53.803 -115.231 56.752 -114.801 C 59.747 -114.439 62.39 -113.717 64.389 -112.886 L 65.632 -112.517 C 68.165 -112.247 70.492 -113.947 70.915 -116.386 C 71.131 -118.039 70.461 -119.577 69.246 -120.523 M 15.843 -74.292 L 15.612 -70.485 L 17.255 -71.563 C 16.689 -72.393 16.197 -73.308 15.843 -74.292 M -70.47 6.025 C -78.757 10.486 -80.202 20.9 -73.623 30.944 C -67.017 40.958 -54.88 45.484 -46.601 40.992 C -38.286 36.467 -36.944 24.668 -43.582 14.616 C -50.207 4.603 -62.163 1.473 -70.47 6.025 M -77.973 45.315 C -75.73 46.627 -70.77 47.207 -71.534 43.974 C -72.288 40.789 -72.2 39.682 -72.2 39.682 L -76.638 40.412 C -76.638 40.412 -80.137 44.004 -77.973 45.315 M -25.169 34.014 C -23.904 95.6 15.773 136.65 35.701 153.447 L 40.454 157.47 L 41.924 151.387 C 43.573 144.649 45.657 135.893 47.78 126.291 C 24.907 106.686 -2.473 74.152 -9.426 27.21 L -9.706 25.229 C -16.017 26.368 -21.2 26.622 -25.169 26.537 C -25.169 28.706 -25.228 31.202 -25.169 34.014 M 87.954 46.042 C 92.273 56.336 96.522 68.361 97.626 83.413 C 100.095 116.838 92.065 145.479 78.656 146.726 C 77.391 146.802 76.08 146.564 74.807 145.749 C 65.985 140.046 61.601 137.52 52.564 130.29 C 49.807 142.042 47.192 152.594 45.473 159.255 C 44.635 161.538 43.158 163.111 41.281 163.411 C 40.086 163.615 38.932 163.238 37.609 162.273 C 20.212 148.883 -29.437 104.594 -30.86 34.263 C -30.945 31.222 -30.899 28.487 -30.876 25.983 C -33.545 25.584 -34.856 25.122 -34.871 24.949 C -33.702 33.768 -36.698 41.743 -43.62 45.484 C -47.992 47.872 -53.28 48.18 -58.579 46.88 C -61.683 46.185 -64.193 45.119 -64.975 44.865 C -66.816 44.35 -68.628 46.288 -68.239 51.072 C -67.789 55.81 -70.396 55.81 -71.877 55.256 C -73.435 54.659 -77.807 49.979 -79.757 48.642 C -81.652 47.322 -84.16 47.723 -84.383 50.21 C -84.579 52.771 -88.497 51.168 -90.555 49.026 C -92.585 46.88 -105.898 36.274 -105.898 36.274 L -104.521 33.855 L -88.225 45.315 L -86.074 42.474 L -96.146 34.443 L -94.458 32.514 L -82.845 39.204 L -79.148 34.986 L -79.826 32.625 C -81.099 30.752 -81.986 28.021 -82.422 25.03 C -87.313 13.278 -84.944 1.307 -75.957 -3.581 C -69.347 -7.142 -60.694 -6.084 -52.973 -1.542 L -53.314 -3.996 L -53.695 -6.473 C -53.695 -6.473 -65.713 -14.041 -68.997 -16.848 C -72.246 -19.598 -72.788 -21.186 -72.788 -21.186 C -72.788 -21.186 -75.711 -37.317 -77.084 -42.667 C -78.465 -47.974 -81.849 -56.538 -80.698 -58.687 C -79.588 -60.756 -75.784 -62.794 -74.107 -61.641 C -72.569 -60.563 -73.727 -58.687 -72.965 -55.199 C -72.107 -51.765 -67.72 -31.729 -66.524 -27.462 C -65.336 -23.239 -59.106 -17.886 -55.93 -15.625 C -53.695 -14.117 -52.115 -12.533 -50.808 -12.079 C -50.196 -12.733 -49.527 -13.31 -48.716 -13.929 C -48.98 -14.602 -49.804 -15.109 -49.804 -15.109 C -49.804 -15.109 -55.095 -19.678 -57.283 -20.932 C -59.51 -22.243 -61.198 -26.097 -61.198 -26.097 C -61.198 -26.097 -63.752 -39.544 -64.54 -45.213 C -65.394 -50.931 -69.466 -61.033 -69.424 -64.933 C -69.466 -68.801 -64.586 -70.654 -63.278 -71.501 C -61.94 -72.246 -61.76 -65.078 -60.067 -61.456 C -58.433 -57.795 -53.596 -36.791 -52.822 -31.642 C -52.064 -26.48 -50.403 -26.516 -48.292 -24.085 C -46.208 -21.624 -40.193 -17.917 -40.193 -17.917 C -40.193 -17.917 -36.976 -19.243 -35.275 -19.243 C -33.545 -19.286 -33.761 -22.547 -33.761 -22.547 L -40.471 -27.292 C -42.701 -28.857 -40.193 -33.399 -39.274 -36.621 C -38.286 -39.821 -36.698 -60.021 -36.367 -67.566 C -36.071 -75.069 -31.949 -74.346 -29.969 -74.653 C -28.038 -74.984 -29.088 -72.593 -29.13 -66.786 C -29.088 -60.94 -30.876 -41.828 -31.638 -37.283 C -32.383 -32.745 -32.279 -29.977 -30.649 -28.6 C -28.995 -27.216 -22.873 -22.386 -21.662 -22.02 C -20.439 -21.693 -19.024 -23.839 -19.024 -23.839 C -19.024 -23.839 -21.92 -27.546 -25.354 -29.753 C -28.88 -31.93 -27.223 -36.356 -26.78 -39.452 C -26.411 -42.582 -25.123 -66.874 -25.331 -72.115 C -25.47 -77.338 -22.381 -77.3 -19.916 -77.969 C -17.39 -78.669 -17.932 -76.33 -17.701 -72.777 C -17.451 -69.231 -19.989 -39.768 -19.644 -37.591 C -19.309 -35.418 -15.121 -29.995 -11.683 -26.408 C -8.283 -22.835 -6.053 -22.001 -3.923 -23.108 C -1.773 -24.285 -2.75 -26.792 -2.75 -26.792 C -2.75 -26.792 -7.723 -37.018 -8.88 -39.355 C -10.071 -41.605 -12.121 -44.904 -11.514 -47.497 C -10.914 -50.065 -7.161 -62.594 -5.945 -73.593 C -4.691 -84.583 -2.865 -115.64 -3.073 -120.854 C -3.242 -126.076 -.365 -131.837 1.911 -133.536 C 4.233 -135.312 10.179 -141.827 12.936 -140.62 C 15.67 -139.396 11.921 -133.806 10.675 -132.506 C 9.464 -131.222 5.803 -126.707 5.152 -123.284 C 4.476 -119.893 3.979 -101.604 3.83 -91.059 C 3.668 -80.537 .35 -59.914 -.662 -55.334 C -1.708 -50.734 -2.25 -40.663 1.318 -36.002 C 4.884 -31.346 5.722 -35.364 5.722 -35.364 L 3.838 -48.058 C 3.287 -52.092 5.587 -63.578 6.929 -71.516 C 8.387 -79.53 10.31 -113.632 9.871 -118.523 C 9.433 -123.431 10.675 -126.668 12.405 -128.591 C 14.105 -130.575 17.781 -140.559 20.008 -144.812 C 22.266 -149.072 26.472 -149.719 29.579 -148.011 C 32.668 -146.28 24.769 -135.874 21.896 -132.106 C 19.047 -128.353 18.047 -120.169 17.289 -109.479 C 16.828 -102.303 17.263 -94.458 17.017 -89.582 C 19.277 -93.396 22.819 -96.296 26.983 -97.704 C 26.626 -99.542 26.649 -101.434 27.053 -103.38 C 28.142 -108.341 31.599 -112.263 35.998 -114.14 C 35.136 -116.255 34.848 -118.547 35.213 -120.946 C 35.99 -125.691 39.224 -129.437 43.404 -131.137 C 48.104 -132.998 54.237 -133.145 59.586 -132.506 C 64.932 -131.806 70.715 -130.106 74.676 -127.168 C 78.164 -124.438 80.113 -120.023 79.368 -115.324 C 79.018 -113.086 78.103 -111.063 76.737 -109.34 C 78.103 -108.617 79.29 -107.726 80.341 -106.825 C 84.267 -103.511 86.189 -98.212 85.024 -92.896 C 84.374 -89.697 82.721 -86.952 80.479 -84.867 C 82.583 -83.298 84.439 -81.684 85.936 -79.961 C 89.885 -75.461 91.358 -69.063 89.331 -62.948 C 87.739 -58.299 84.374 -54.588 80.21 -52.488 L 81.69 -50.685 C 85.358 -45.836 86.34 -39.125 83.567 -33.095 C 80.571 -26.458 74.1 -22.416 67.696 -21.124 C 69.953 -16.078 69.577 -9.903 65.9 -4.946 C 61.348 1.342 50.479 5.637 42.351 3.549 C 66.354 14.839 82.721 33.633 87.954 46.042 " fill="#ffffff"/>
<path transform="matrix(1,0,0,-1,1086.6172,339.3087)" d="M 0 0 C -2.092 .246 -3.606 1.953 -3.465 3.804 C -3.314 5.699 -1.449 6.991 .674 6.761 C 2.746 6.526 4.35 4.838 4.203 2.969 C 4.026 1.084 2.115 -.223 0 0 M 2.262 11.145 C -3.318 11.806 -8.214 8.299 -8.683 3.346 C -9.133 -1.55 -4.987 -6.114 .608 -6.757 C 6.199 -7.337 11.114 -3.814 11.599 1.084 C 11.987 6.038 7.842 10.545 2.262 11.145 " fill="#ffffff"/>
</g>
</g>
</g>
</svg>
